<?xml version="1.0" encoding="utf-8"?>
<!-- Generator: Adobe Illustrator 19.2.1, SVG Export Plug-In . SVG Version: 6.00 Build 0)  -->
<svg version="1.1" id="Layer_1" xmlns="http://www.w3.org/2000/svg" xmlns:xlink="http://www.w3.org/1999/xlink" x="0px" y="0px"
	 viewBox="0 0 200 81.5" style="enable-background:new 0 0 200 81.5;" xml:space="preserve">
<style type="text/css">
	.st0{fill:#E85250;}
	.st1{font-family:'FreightSansProMedium-Regular';}
	.st2{font-size:18.8246px;}
	.st3{fill:#317CBE;}
	.st4{fill:#010101;}
</style>
<text transform="matrix(1 0 0 1 84.5337 79.2611)" class="st0 st1 st2">friend finder</text>
<path class="st0" d="M200,63.1c0,0-0.8-0.1-2.1-0.4c-0.7-0.1-1.5-0.4-2.5-0.6c-1-0.2-2.2-0.4-3.5-0.6c-2.6-0.4-5.8-0.9-9.5-1.2
	c-3.6-0.4-7.8-0.8-12.3-1c-4.5-0.2-9.4-0.4-14.5-0.6c-2.5,0-5.3-0.1-7.9,0c-2.8,0-5.5,0-8.2,0.1c-5.6,0.1-11.4,0.3-17.4,0.6
	c-5.9,0.3-11.9,0.6-17.9,1c-3,0.2-5.9,0.4-9,0.8c-3,0.2-5.9,0.5-8.9,0.9c-1.4,0.1-3,0.4-4.4,0.4c-1.4,0.1-2.9,0.4-4.4,0.4
	c-1.4,0.2-2.9,0.4-4.3,0.4c-1.4,0.2-2.9,0.4-4.3,0.4c-5.6,0.5-11.1,1-16.4,1c-2.6,0.1-5.2,0.2-7.6,0.2c-2.4,0-4.8,0-7.2-0.1
	c-4.5-0.1-8.7-0.4-12.4-0.8c-3.7-0.4-6.9-1-9.6-1.7c-1.3-0.4-2.4-0.7-3.4-1c-1-0.4-1.9-0.7-2.5-1c-0.7-0.4-1.2-0.6-1.4-0.8
	c-0.4-0.2-0.4-0.4-0.4-0.4s0.2,0.1,0.6,0.2c0.4,0.1,0.9,0.4,1.5,0.4c0.7,0.2,1.5,0.4,2.5,0.6c1,0.2,2.2,0.4,3.5,0.4
	c1.3,0.1,2.8,0.2,4.3,0.2s3.3,0.1,5.1,0c3.6,0,7.8-0.2,12.2-0.4c2.2-0.1,4.6-0.4,7-0.4c2.4-0.2,5-0.4,7.5-0.6
	c5.2-0.4,10.5-1,16.2-1.6c2.9-0.4,5.7-0.6,8.6-1c2.9-0.4,5.8-0.6,8.8-1c3-0.4,5.9-0.5,9-0.8c3-0.2,6.1-0.4,9-0.6
	c6.1-0.4,12.1-0.6,18-0.7c5.9-0.1,11.8-0.1,17.5,0c2.9,0.1,5.6,0.1,8.3,0.4c2.8,0.1,5.4,0.4,8,0.4c5.2,0.4,10.1,0.9,14.6,1.5
	c4.5,0.7,8.7,1.3,12.3,2c3.6,0.8,6.8,1.5,9.4,2.2c1.3,0.4,2.4,0.7,3.4,1c1,0.4,1.9,0.6,2.5,0.8C199.2,62.9,200,63.1,200,63.1z"/>
<path class="st3" d="M46,36.5c0-5.7-3.2-9-9.9-10c5.6-1.2,8.2-4.1,8.3-9c0-7.2-4.5-10.1-15.7-10.1l-18.1,0l0,4.5l3.1,0
	c0.9,0,1.2,0.4,1.2,1.7l-0.1,27.7c0,1.3-0.4,1.8-1.2,1.8l-3.1,0l0,4.5l18,0C40.7,47.5,45.9,44.2,46,36.5z M23.4,11.8l5.1,0
	c5.2,0,7,1.7,7,6.6c0,4.6-2.4,6.5-7.5,6.5l-4.6,0L23.4,11.8L23.4,11.8z M23.3,28.9l6.1,0c5.3,0,7.6,2,7.6,7.2c0,5.1-2.2,6.9-8.1,6.9
	l-5.6,0L23.3,28.9z"/>
<polygon class="st3" points="147.4,14.3 151.3,11.2 155.3,14.3 153.8,9.5 157.7,6.5 152.9,6.5 151.4,1.7 149.8,6.5 144.9,6.5 
	148.8,9.5 "/>
<g>
	<path class="st3" d="M188.6,53.1c1.4,0.4,1.9,0.9,1.9,0.9s-0.7-0.1-2.1-0.4c-0.7-0.2-1.5-0.4-2.6-0.6c-1.1-0.2-2.2-0.4-3.5-0.7
		c-2.6-0.4-5.8-0.9-9.5-1.3c-3.6-0.4-7.7-0.8-12.2-1.1c-4.5-0.3-9.4-0.5-14.5-0.7s-10.6-0.2-16.3,0c-5.6,0.1-11.4,0.2-17.4,0.5
		c-5.9,0.2-12,0.6-17.9,1c-5.9,0.5-11.9,1.1-17.8,1.6c-1.4,0.1-3,0.3-4.4,0.4c-1.5,0.1-3,0.3-4.4,0.4c-2.9,0.3-5.7,0.6-8.6,1
		c-5.6,0.5-11.1,1-16.3,1.2c-5.2,0.2-10.1,0.2-14.6,0.2c-4.6-0.1-8.8-0.3-12.4-0.7c-3.6-0.3-6.8-0.8-9.5-1.5
		c-1.3-0.3-2.4-0.7-3.4-0.9c-1-0.3-1.9-0.7-2.6-1c-0.8-0.3-1.2-0.6-1.5-0.8c0.3,0.1,0.9,0.3,1.5,0.6c1.4,0.4,3.4,0.9,6.1,1.1
		c1.3,0.1,2.8,0.2,4.3,0.4c1.5,0.1,3.2,0.1,5.1,0.1s3.7,0,5.8-0.1c2.1,0,4.3-0.1,6.5-0.2c4.5-0.2,9.3-0.5,14.5-1
		c2.6-0.2,5.3-0.4,7.9-0.8c2.8-0.2,5.5-0.5,8.3-0.9c1.1-0.2,2.2-0.3,3.3-0.4C52,49,46.9,42,46.9,32.5c0-10.1,6.4-16.9,15.8-16.9
		c9.6,0,14.8,6.3,14.8,16.9l0,1.7l-22-0.1c0.1,6.1,2.9,10,8.5,10c4.3,0,6.8-2.3,8.3-6.1l4.7,2.2c-1.3,3.9-3.9,7-8.3,8.5
		c2.5-0.3,5.1-0.6,7.7-0.9c0.6-0.1,1.2-0.1,1.9-0.2l0-4.1l2.8,0c0.8,0,1.1-0.2,1.1-1.8l0-18.6c0-1.5-0.3-2-1.1-2l-3,0l0-5l5.1,0
		c3.1,0,5.8-0.3,7.3-0.6l0,7c1.5-5.2,4.6-7.2,8.3-7.2c4.5,0,7.2,3.1,7.2,7.8c0,4.2-2.4,6.9-6,6.9c-2.2,0-4.2-2-4.2-4.4
		c0-1.8,1.1-3.6,3-4.2c-0.4-0.4-1.2-0.7-2.1-0.7c-4,0-6.1,4-6.2,10.8l0,10.1c0,1.5,0.4,1.8,1.1,1.8l3,0l0,2.6
		c3.8-0.2,7.8-0.4,11.7-0.5l0-2.1l2.8,0c0.8,0,1.1-0.2,1.1-1.8l0-18.6c0-1.5-0.3-2-1.1-2l-2,0c-0.2-1.3-1.3-4.2-3-5l7,0
		c3,0,5.8-0.3,7.2-0.6l0,6.4c1.9-4.4,5.4-6.6,10.3-6.6c6.4,0,9.8,4,9.8,12l0,14.3c0,1.5,0.4,1.7,1.1,1.7l2.8,0l0,2.2
		c0.4,0,0.7,0,1,0l0-2.2l2.8,0c0.7,0,1-0.3,1-1.7l0-17.9c0-2.1-0.2-2.6-1.3-2.6l-2.4,0l0-4.9l5,0c3.1,0,5.8-0.3,7.3-0.6l-0.1,26.2
		c0,1.4,0.4,1.8,1,1.8l2.6,0l0,3.5c0.7,0.1,1.3,0.1,2,0.2c3.2,0.4,6.2,0.9,9,1.3c-7.3-2.1-10.9-8.3-10.9-16.3
		c0-10.1,6.4-16.9,15.8-16.9c9.6,0,14.8,6.3,14.8,16.9l0,1.7l-22-0.1c0.1,6,2.9,10,8.5,10c4.3,0,6.8-2.3,8.3-6.1l4.7,2.2
		c-1.8,5.1-5.8,9.2-13.6,9.2c-0.7,0-1.3-0.1-2-0.1c3.4,0.7,6.5,1.3,8.9,2c1.3,0.3,2.4,0.7,3.4,1C187.1,52.7,187.9,52.9,188.6,53.1z
		 M167.6,29.7l13.6,0c-0.1-6.5-1.9-9-6.3-9C170.5,20.7,168.1,23.4,167.6,29.7z M130.2,41.8l0-14.2c0-4.5-1.5-6.4-4.9-6.4
		c-4.2,0-6.6,3.4-6.6,10.5l0,10c0,1.5,0.4,1.8,1.1,1.8l2.4,0l0,1.7c1.5-0.1,3.1-0.1,4.5,0l0-1.7l2.4,0
		C129.8,43.6,130.2,43.4,130.2,41.8z M55.7,29.5l13.6,0c-0.1-6.5-1.9-9-6.3-9C58.5,20.5,56.1,23.1,55.7,29.5z"/>
	<path class="st4" d="M-1.2,50.3c0,0,0.2,0,0.4,0.4C-1,50.4-1.2,50.3-1.2,50.3z"/>
</g>
</svg>
