<?xml version="1.0" encoding="utf-8"?>
<!-- Generator: Adobe Illustrator 19.2.1, SVG Export Plug-In . SVG Version: 6.00 Build 0)  -->
<svg version="1.1" id="Layer_1" xmlns="http://www.w3.org/2000/svg" xmlns:xlink="http://www.w3.org/1999/xlink" x="0px" y="0px"
	 viewBox="0 0 579.6 258" style="enable-background:new 0 0 579.6 258;" xml:space="preserve">
<style type="text/css">
	.st0{fill:#E85250;}
	.st1{fill:#317CBE;}
	.st2{font-family:'FreightSansProSemibold-Regular';}
	.st3{font-size:55.445px;}
	.st4{letter-spacing:1;}
</style>
<g>
	<path class="st0" d="M579.6,176.7c0,0-2.3-0.3-6.1-1.2c-1.9-0.3-4.4-0.9-7.3-1.6c-3-0.6-6.4-1.2-10.1-1.6
		c-7.6-1.2-16.8-2.5-27.2-3.6c-10.4-1.2-22.6-2.3-35.5-3c-13.1-0.6-26.9-1.2-41.7-1.6c-7.3,0-15.3-0.3-22.7,0
		c-7.9,0-15.9,0-23.8,0.3c-16.2,0.3-32.8,0.9-50,1.9c-17.1,0.9-34.1,1.9-51.7,3.1c-8.6,0.6-17.1,1.2-26,2.3
		c-8.6,0.6-17.1,1.6-25.7,2.5c-4.2,0.3-8.6,0.9-12.6,1.2c-4.2,0.3-8.3,0.9-12.6,1.2c-4.2,0.6-8.3,0.9-12.5,1.2
		c-4.2,0.6-8.3,0.9-12.5,1.2c-16.2,1.6-32.1,3-47.2,3.1c-7.6,0.3-14.9,0.6-22,0.6c-7,0-13.9,0-20.5-0.3c-13.1-0.3-25.1-1.2-35.8-2.3
		c-10.7-1.2-19.9-3-27.6-4.8c-3.7-0.9-7-1.9-9.8-3c-3-0.9-5.4-1.9-7.3-3c-1.9-0.9-3.6-1.6-4.2-2.3c-0.9-0.6-1.2-0.9-1.2-0.9
		s0.6,0.3,1.6,0.6c0.9,0.3,2.5,0.9,4.4,1.2c1.9,0.6,4.4,0.9,7.3,1.6s6.4,0.9,10.1,1.2s7.9,0.6,12.5,0.6s9.5,0.3,14.5,0
		c10.4,0,22.6-0.6,35.2-1.2c6.4-0.3,13.2-0.9,20.2-1.2c7-0.6,14.3-1.2,21.5-1.9c14.9-1.2,30.4-3,46.5-4.8c8.3-0.9,16.5-1.9,24.8-3
		c8.3-0.9,16.8-1.9,25.4-3c8.6-0.9,17.1-1.6,26-2.3c8.6-0.6,17.4-1.2,26-1.9c17.4-1.2,34.9-1.9,51.8-2.3c17.1-0.3,33.9-0.3,50.3,0
		c8.3,0.3,16.2,0.3,24,0.9c7.9,0.3,15.6,0.9,23.2,1.2c14.9,0.9,29.1,2.5,42.2,4.2c13.1,1.9,25.1,3.7,35.5,5.8
		c10.4,2.3,19.6,4.2,26.9,6.4c3.7,0.9,7,1.9,9.8,3c3,0.9,5.4,1.6,7.3,2.3C577.3,176.1,579.6,176.7,579.6,176.7z"/>
	<path class="st1" d="M135.8,103.5c0-16.5-9.2-26-28.5-28.8c16.2-3.6,23.8-12,23.8-26c0-20.5-13.1-29.1-45.3-29.1H33.6v13.1h8.9
		c2.5,0,3.6,1.2,3.6,4.8v79.7c0,3.7-0.9,5.1-3.6,5.1h-8.9v13.1h51.8C120.7,135.1,135.8,125.6,135.8,103.5z M70.5,32.7H85
		c14.9,0,20.2,4.8,20.2,19c0,13.2-7,18.7-21.5,18.7H70.5V32.7z M70.5,81.7H88c15.3,0,22,5.8,22,20.5c0,14.5-6.4,19.9-23.2,19.9H70.5
		V81.7z"/>
	<polygon class="st1" points="427.5,36.4 439,27.6 450.4,36.4 446,22.6 457.4,13.9 443.5,13.9 439,0 434.5,13.9 420.3,13.9 
		431.7,22.6 	"/>
	<g id="XMLID_2_">
		<g>
			<path class="st1" d="M546.6,147.7c4,1.2,5.4,2.5,5.4,2.5s-1.9-0.3-6.1-1.2c-1.9-0.6-4.4-0.9-7.3-1.6c-3.1-0.6-6.4-1.2-10.1-1.9
				c-7.6-1.2-16.7-2.5-27.2-3.7c-10.4-1.2-22.1-2.2-35.2-3.1c-12.9-0.9-26.9-1.6-41.7-1.9s-30.7-0.3-46.9,0c-16,0.3-32.8,0.6-50,1.6
				c-17.1,0.6-34.6,1.9-51.7,3.1c-17.1,1.6-34.2,3.1-51.2,4.8c-4,0.3-8.6,0.9-12.6,1.2c-4.4,0.3-8.6,0.9-12.6,1.2
				c-8.3,0.9-16.5,1.9-24.6,3c-16,1.6-31.9,3-46.9,3.6s-29,0.7-42.1,0.7c-13.2-0.3-25.4-0.9-35.8-1.9s-19.6-2.3-27.2-4.2
				c-3.7-0.9-7-1.9-9.8-2.5c-3-0.9-5.4-1.9-7.3-3c-2.2-0.9-3.4-1.6-4.4-2.3c0.9,0.3,2.5,0.9,4.4,1.6c4.2,1.2,9.8,2.5,17.4,3.1
				c3.7,0.3,7.9,0.6,12.5,0.9c4.4,0.3,9.2,0.3,14.5,0.3c5.4,0,10.7,0,16.8-0.3c6.1,0,12.5-0.3,18.7-0.6c12.9-0.6,26.9-1.6,41.7-3
				c7.6-0.6,15.3-1.2,22.7-2.3c7.9-0.6,15.9-1.6,23.8-2.5c3.1-0.6,6.4-0.9,9.5-1.2c-29.9-1.1-44.7-21-44.7-48.6
				c0-29.1,18.4-48.7,45.3-48.7c27.6,0,42.8,18.1,42.8,48.7v4.8h-63.2c0.3,17.4,8.6,28.8,24.6,28.8c12.5,0,19.6-6.5,23.8-17.7
				l13.7,6.4c-3.7,11.1-11.1,20.2-23.8,24.4c7.2-0.9,14.6-1.9,22.1-2.5c1.6-0.3,3.6-0.3,5.4-0.6v-11.7h7.9c2.2,0,3.1-0.6,3.1-5.1
				V62.7c0-4.4-0.9-5.8-3.1-5.8h-8.6V42.7h14.5c8.9,0,16.7-0.9,20.9-1.9V61c4.2-14.8,13.2-20.9,23.8-20.9c12.9,0,20.9,8.9,20.9,22.6
				c0,12-7,19.9-17.1,19.9c-6.4,0-12-5.8-12-12.6c0-5.1,3.1-10.4,8.6-12c-1.2-1.2-3.6-1.9-6.1-1.9c-11.7,0-17.7,11.7-17.7,31v29.1
				c0,4.4,1.2,5.1,3.1,5.1h8.6v7.6c11.1-0.6,22.4-1.2,33.5-1.6v-6.1h7.9c2.2,0,3.1-0.6,3.1-5V62.6c0-4.4-0.9-5.8-3.1-5.8h-5.8
				c-0.6-3.7-3.7-12-8.6-14.3h20.2c8.6,0,16.8-0.9,20.5-1.9v18.5c5.4-12.6,15.6-19,29.4-19c18.4,0,28.2,11.4,28.2,34.6v41.1
				c0,4.4,1.2,5,3.1,5h7.9v6.4c0.9,0,1.9,0,3,0v-6.4h7.9c1.9,0,3-0.9,3-5V64.1c0-5.9-0.6-7.6-3.7-7.6h-7V42.2H430
				c8.9,0,16.7-0.9,20.9-1.9v75.3c0,4,0.9,5.1,3,5.1h7.6v10.1c1.9,0.3,3.7,0.3,5.8,0.6c9.2,1.2,18.1,2.5,26,3.7
				c-20.9-5.9-31.3-23.7-31.3-46.9c0-29.1,18.4-48.7,45.3-48.7c27.6,0,42.8,18.1,42.8,48.7V93h-63.2c0.3,17.4,8.6,28.8,24.6,28.8
				c12.5,0,19.6-6.5,23.8-17.7l13.7,6.4c-5,14.8-16.7,26.6-39.2,26.6c-1.9,0-3.7-0.3-5.8-0.3c9.8,1.9,18.7,3.7,25.7,5.8
				c3.7,0.9,7,1.9,9.8,3C542.2,146.5,544.7,147.1,546.6,147.7z M486.2,80.6h39.2c-0.3-18.7-5.8-26-18.4-26
				C494.4,54.8,487.4,62.4,486.2,80.6z M378.3,115.8V75c0-12.9-4.4-18.4-14.3-18.4c-12,0-19,9.8-19,30.4v28.8c0,4.4,1.2,5.1,3.1,5.1
				h7v5c4.4-0.3,8.9-0.3,13.1,0v-5h7C377.4,121,378.3,120.3,378.3,115.8z M163.8,80.6H203c-0.3-18.7-5.8-26-18.4-26
				C171.9,54.8,165,62.4,163.8,80.6z"/>
			<path class="st1" d="M0,141c0,0,0.6,0,1.2,0.9C0.6,141.5,0,141,0,141z"/>
		</g>
	</g>
</g>
<text transform="matrix(1 0 0 1 17.541 241.6406)" class="st0 st2 st3 st4">#TWEETSFORBERNIE</text>
</svg>
